<?xml version="1.0" encoding="UTF-8" standalone="no"?>
<!-- Created with Inkscape (http://www.inkscape.org/) -->

<svg
   width="58.68502mm"
   height="65.239677mm"
   viewBox="0 0 58.68502 65.239677"
   version="1.1"
   id="svg41388"
   xmlns="http://www.w3.org/2000/svg"
   xmlns:svg="http://www.w3.org/2000/svg">
  <defs
     id="defs41385" />
  <g
     id="layer1"
     transform="translate(-75.365297,-107.20273)">
    <g
       id="g40026"
       transform="matrix(0.35277999,0,0,0.35277999,56.450718,75.930948)">
      <path
         transform="matrix(0.75,0,0,0.75,-4.9359e-4,0)"
         d="M 128.66,338.91 C 96.695,320.256 79.506,309.529 77.293,306.855 c -1.37,-1.6559 -3.2588,-5.3775 -4.1974,-8.2703 -1.6736,-5.1582 -1.7035,-6.3035 -1.5459,-59.394 l 0.16062,-54.135 2.0315,-4.009 c 1.1173,-2.2049 3.6599,-5.5916 5.6501,-7.5259 3.8638,-3.7552 13.912,-9.2587 16.904,-9.2587 4.4696,0 17.008,2.7722 25.891,5.7244 27.687,9.2017 50.634,25.549 69.74,49.682 4.9396,6.2392 6.0704,8.5179 4.227,8.5179 -1.6041,0 -15.618,7.1301 -20.967,10.668 -7.1888,4.7544 -16.168,13.451 -20.246,19.61 l -3.386,5.1129 -4.6782,0.48896 c -10.805,1.1293 -18.094,5.3372 -21.595,12.465 -1.9761,4.0242 -2.2823,5.589 -2.2568,11.534 0.0436,10.183 2.9464,16.97 8.4828,19.833 l 2.3598,1.2203 -0.46349,6.2637 c -0.45088,6.0933 0.70652,22.727 1.7752,25.512 0.76821,2.0019 -0.18544,1.7116 -6.5195,-1.9847 z"
         fill="#275cde"
         id="path40018" />
      <path
         transform="matrix(0.75,0,0,0.75,-4.9359e-4,0)"
         d="m 175.99,364.12 c -6.2782,-1.083 -12.943,-4.2203 -18.374,-8.6489 -2.1427,-1.7473 -5.3326,-8.5422 -7.1415,-15.212 -0.7392,-2.7257 -1.5136,-9.6873 -1.7658,-15.873 l -0.44909,-11.018 3.5483,-0.53342 c 6.0604,-0.91107 12.887,-5.2652 15.795,-10.074 4.644,-7.6803 4.4078,-19.344 -0.55015,-27.162 -1.3151,-2.0737 -2.3911,-4.1165 -2.3911,-4.5395 0,-1.61 17.641,-18.415 22.803,-21.722 5.1893,-3.3247 14.905,-7.3393 17.849,-7.375 2.8227,-0.0342 10.385,17.973 13.118,31.235 4.6497,22.564 3.1777,59.073 -2.9566,73.333 -0.94198,2.1897 -3.1482,5.1708 -5.008,6.7667 -4.6633,4.0019 -15.231,9.0259 -21.935,10.429 -6.1894,1.295 -7.1483,1.3252 -12.542,0.39477 z"
         fill="#01cfff"
         id="path40020" />
      <path
         transform="matrix(0.75,0,0,0.75,-4.9359e-4,0)"
         d="m 241.93,312.95 c -0.0126,-22.366 -0.72307,-30.679 -4.1555,-48.621 -2.046,-10.694 -4.8497,-19.622 -7.6561,-24.378 l -1.601,-2.7135 5.0939,0.41034 c 18.93,1.5249 37.267,8.3911 50.407,18.875 9.1936,7.3351 8.8397,6.5736 9.1804,19.751 0.25184,9.7394 0.0318,12.619 -1.3962,18.265 -1.8736,7.4091 -4.4833,12.446 -8.5002,16.405 -2.0066,1.9779 -39.595,23.249 -41.077,23.246 -0.15624,-3.8e-4 -0.28944,-9.5587 -0.29601,-21.241 z"
         fill="#275cde"
         id="path40022" />
      <path
         transform="matrix(0.75,0,0,0.75,-4.9359e-4,0)"
         d="m 288.47,240.68 c -5.5045,-4.5788 -20.208,-11.888 -28.321,-14.079 -9.2846,-2.5072 -21.298,-4.0734 -31.285,-4.0787 l -9.0329,-0.005 -3.3735,-6.2711 c -8.9345,-16.608 -24.43,-32.32 -46.126,-46.77 -11.62,-7.7392 -28.147,-16.581 -37.797,-20.223 l -6.644,-2.507 21.521,-12.849 c 11.837,-7.067 23.383,-13.493 25.659,-14.28 5.15,-1.7801 14.935,-1.9146 20.436,-0.28094 2.2268,0.66129 14.582,7.5093 27.456,15.218 12.874,7.7085 30.144,17.961 38.377,22.782 25.025,14.656 26.659,16.011 31.333,25.992 l 2.2472,4.7985 0.24423,21.848 c 0.13433,12.016 0.13433,24.673 0,28.127 l -0.24423,6.2796 z"
         fill="#0a2183"
         id="path40024" />
    </g>
  </g>
</svg>
